{
  "accessors": [
    {
      "name": "player-sitting-1_3_53x108x55_1_0_positions",
      "componentType": 5126,
      "count": 1073,
      "min": [
        -2.4769999980926514,
        0,
        -2.569999933242798
      ],
      "max": [
        2.4769999980926514,
        10.093000411987305,
        2.569999933242798
      ],
      "type": "VEC3",
      "bufferView": 0,
      "byteOffset": 0
    },
    {
      "name": "player-sitting-1_3_53x108x55_1_0_texcoords",
      "componentType": 5126,
      "count": 1073,
      "min": [
        0.125,
        0.125
      ],
      "max": [
        0.875,
        0.625
      ],
      "type": "VEC2",
      "bufferView": 1,
      "byteOffset": 0
    },
    {
      "name": "player-sitting-1_3_53x108x55_1_0_indices",
      "componentType": 5123,
      "count": 3726,
      "min": [
        0
      ],
      "max": [
        1072
      ],
      "type": "SCALAR",
      "bufferView": 2,
      "byteOffset": 0
    }
  ],
  "asset": {
    "generator": "obj2gltf",
    "version": "2.0"
  },
  "buffers": [
    {
      "name": "player-sitting-1_3_53x108x55",
      "byteLength": 28912,
      "uri": "data:application/octet-stream;base64,"
    }
  ],
  "bufferViews": [
    {
      "name": "bufferView_0",
      "buffer": 0,
      "byteLength": 12876,
      "byteOffset": 0,
      "byteStride": 12,
      "target": 34962
    },
    {
      "name": "bufferView_1",
      "buffer": 0,
      "byteLength": 8584,
      "byteOffset": 12876,
      "byteStride": 8,
      "target": 34962
    },
    {
      "name": "bufferView_2",
      "buffer": 0,
      "byteLength": 7452,
      "byteOffset": 21460,
      "target": 34963
    }
  ],
  "materials": [
    {
      "name": "default",
      "pbrMetallicRoughness": {
        "baseColorFactor": [
          0.5,
          0.5,
          0.5,
          1
        ],
        "metallicFactor": 0,
        "roughnessFactor": 1
      },
      "emissiveFactor": [
        0,
        0,
        0
      ],
      "alphaMode": "OPAQUE",
      "doubleSided": false
    }
  ],
  "meshes": [
    {
      "name": "player-sitting-1_3_53x108x55_1",
      "primitives": [
        {
          "attributes": {
            "POSITION": 0,
            "TEXCOORD_0": 1
          },
          "indices": 2,
          "material": 0,
          "mode": 4
        }
      ]
    }
  ],
  "nodes": [
    {
      "name": "player-sitting-1_3_53x108x55",
      "mesh": 0
    }
  ],
  "scene": 0,
  "scenes": [
    {
      "nodes": [
        0
      ]
    }
  ]
}
